<mxfile host="app.diagrams.net" agent="Mozilla/5.0 (Windows NT 10.0; Win64; x64) AppleWebKit/537.36 (KHTML, like Gecko) Chrome/129.0.0.0 Safari/537.36" version="24.7.16" pages="5">
  <diagram name="Casos de uso" id="650Az5szL2PqrS8uFlfR">
    <mxGraphModel dx="1050" dy="530" grid="1" gridSize="10" guides="1" tooltips="1" connect="1" arrows="1" fold="1" page="1" pageScale="1" pageWidth="827" pageHeight="1169" math="0" shadow="0">
      <root>
        <mxCell id="0" />
        <mxCell id="1" parent="0" />
        <mxCell id="1-JqtQz4HQ6x28SOS2C3-1" value="Cajero" style="shape=umlActor;verticalLabelPosition=bottom;verticalAlign=top;html=1;" parent="1" vertex="1">
          <mxGeometry x="50" y="160" width="30" height="60" as="geometry" />
        </mxCell>
        <mxCell id="1-JqtQz4HQ6x28SOS2C3-2" value="Cliente" style="shape=umlActor;verticalLabelPosition=bottom;verticalAlign=top;html=1;" parent="1" vertex="1">
          <mxGeometry x="50" y="430" width="30" height="60" as="geometry" />
        </mxCell>
        <mxCell id="1-JqtQz4HQ6x28SOS2C3-4" value="creación de cliente" style="ellipse;whiteSpace=wrap;html=1;" parent="1" vertex="1">
          <mxGeometry x="180" y="50" width="140" height="50" as="geometry" />
        </mxCell>
        <mxCell id="1-JqtQz4HQ6x28SOS2C3-5" value="creación de cuenta" style="ellipse;whiteSpace=wrap;html=1;" parent="1" vertex="1">
          <mxGeometry x="180" y="230" width="140" height="50" as="geometry" />
        </mxCell>
        <mxCell id="1-JqtQz4HQ6x28SOS2C3-6" value="transacción" style="ellipse;whiteSpace=wrap;html=1;" parent="1" vertex="1">
          <mxGeometry x="200" y="410" width="140" height="40" as="geometry" />
        </mxCell>
        <mxCell id="1-JqtQz4HQ6x28SOS2C3-7" value="" style="endArrow=open;endFill=1;endSize=12;html=1;rounded=0;" parent="1" source="1-JqtQz4HQ6x28SOS2C3-1" target="1-JqtQz4HQ6x28SOS2C3-4" edge="1">
          <mxGeometry width="160" relative="1" as="geometry">
            <mxPoint x="90" y="200" as="sourcePoint" />
            <mxPoint x="250" y="200" as="targetPoint" />
          </mxGeometry>
        </mxCell>
        <mxCell id="1-JqtQz4HQ6x28SOS2C3-8" value="" style="endArrow=open;endFill=1;endSize=12;html=1;rounded=0;entryX=0;entryY=0.5;entryDx=0;entryDy=0;exitX=0.5;exitY=0.5;exitDx=0;exitDy=0;exitPerimeter=0;" parent="1" source="1-JqtQz4HQ6x28SOS2C3-1" target="1-JqtQz4HQ6x28SOS2C3-5" edge="1">
          <mxGeometry width="160" relative="1" as="geometry">
            <mxPoint x="90" y="200" as="sourcePoint" />
            <mxPoint x="180" y="150" as="targetPoint" />
          </mxGeometry>
        </mxCell>
        <mxCell id="1-JqtQz4HQ6x28SOS2C3-9" value="" style="endArrow=open;endFill=1;endSize=12;html=1;rounded=0;entryX=0;entryY=0.5;entryDx=0;entryDy=0;" parent="1" target="1-JqtQz4HQ6x28SOS2C3-6" edge="1">
          <mxGeometry width="160" relative="1" as="geometry">
            <mxPoint x="80" y="220" as="sourcePoint" />
            <mxPoint x="170" y="275" as="targetPoint" />
          </mxGeometry>
        </mxCell>
        <mxCell id="1-JqtQz4HQ6x28SOS2C3-10" value="" style="endArrow=open;endFill=1;endSize=12;html=1;rounded=0;entryX=0.054;entryY=0.84;entryDx=0;entryDy=0;entryPerimeter=0;" parent="1" target="1-JqtQz4HQ6x28SOS2C3-6" edge="1">
          <mxGeometry width="160" relative="1" as="geometry">
            <mxPoint x="70" y="480" as="sourcePoint" />
            <mxPoint x="170" y="410" as="targetPoint" />
          </mxGeometry>
        </mxCell>
        <mxCell id="1-JqtQz4HQ6x28SOS2C3-11" value="Retiros" style="ellipse;whiteSpace=wrap;html=1;" parent="1" vertex="1">
          <mxGeometry x="420" y="360" width="140" height="40" as="geometry" />
        </mxCell>
        <mxCell id="1-JqtQz4HQ6x28SOS2C3-12" value="Depositos" style="ellipse;whiteSpace=wrap;html=1;" parent="1" vertex="1">
          <mxGeometry x="420" y="440" width="140" height="40" as="geometry" />
        </mxCell>
        <mxCell id="1-JqtQz4HQ6x28SOS2C3-13" value="" style="endArrow=open;endFill=1;endSize=12;html=1;rounded=0;entryX=0.98;entryY=0.32;entryDx=0;entryDy=0;entryPerimeter=0;" parent="1" target="1-JqtQz4HQ6x28SOS2C3-6" edge="1">
          <mxGeometry width="160" relative="1" as="geometry">
            <mxPoint x="430" y="390" as="sourcePoint" />
            <mxPoint x="350" y="420" as="targetPoint" />
          </mxGeometry>
        </mxCell>
        <mxCell id="1-JqtQz4HQ6x28SOS2C3-14" value="" style="endArrow=open;endFill=1;endSize=12;html=1;rounded=0;exitX=0.054;exitY=0.77;exitDx=0;exitDy=0;exitPerimeter=0;" parent="1" source="1-JqtQz4HQ6x28SOS2C3-12" edge="1">
          <mxGeometry width="160" relative="1" as="geometry">
            <mxPoint x="420" y="480" as="sourcePoint" />
            <mxPoint x="337" y="438" as="targetPoint" />
          </mxGeometry>
        </mxCell>
        <mxCell id="1-JqtQz4HQ6x28SOS2C3-15" value="Actualizar saldo" style="ellipse;whiteSpace=wrap;html=1;" parent="1" vertex="1">
          <mxGeometry x="650" y="395" width="140" height="45" as="geometry" />
        </mxCell>
        <mxCell id="1-JqtQz4HQ6x28SOS2C3-17" value="" style="endArrow=open;endFill=1;endSize=12;html=1;rounded=0;entryX=0;entryY=1;entryDx=0;entryDy=0;" parent="1" target="1-JqtQz4HQ6x28SOS2C3-15" edge="1">
          <mxGeometry width="160" relative="1" as="geometry">
            <mxPoint x="550" y="470" as="sourcePoint" />
            <mxPoint x="650" y="440" as="targetPoint" />
          </mxGeometry>
        </mxCell>
        <mxCell id="1-JqtQz4HQ6x28SOS2C3-18" value="" style="endArrow=open;endFill=1;endSize=12;html=1;rounded=0;entryX=0;entryY=0.5;entryDx=0;entryDy=0;" parent="1" target="1-JqtQz4HQ6x28SOS2C3-15" edge="1">
          <mxGeometry width="160" relative="1" as="geometry">
            <mxPoint x="560" y="377" as="sourcePoint" />
            <mxPoint x="630" y="430" as="targetPoint" />
          </mxGeometry>
        </mxCell>
        <mxCell id="1-JqtQz4HQ6x28SOS2C3-19" value="listar clientes" style="ellipse;whiteSpace=wrap;html=1;" parent="1" vertex="1">
          <mxGeometry x="430" y="10" width="140" height="40" as="geometry" />
        </mxCell>
        <mxCell id="1-JqtQz4HQ6x28SOS2C3-20" value="obtener detalle" style="ellipse;whiteSpace=wrap;html=1;" parent="1" vertex="1">
          <mxGeometry x="430" y="70" width="140" height="40" as="geometry" />
        </mxCell>
        <mxCell id="1-JqtQz4HQ6x28SOS2C3-21" value="actualizar datos" style="ellipse;whiteSpace=wrap;html=1;" parent="1" vertex="1">
          <mxGeometry x="430" y="120" width="140" height="40" as="geometry" />
        </mxCell>
        <mxCell id="1-JqtQz4HQ6x28SOS2C3-22" value="eliminar" style="ellipse;whiteSpace=wrap;html=1;" parent="1" vertex="1">
          <mxGeometry x="430" y="170" width="140" height="30" as="geometry" />
        </mxCell>
        <mxCell id="1-JqtQz4HQ6x28SOS2C3-23" value="" style="endArrow=open;endFill=1;endSize=12;html=1;rounded=0;" parent="1" target="1-JqtQz4HQ6x28SOS2C3-4" edge="1">
          <mxGeometry width="160" relative="1" as="geometry">
            <mxPoint x="430" y="30" as="sourcePoint" />
            <mxPoint x="350" y="60.5" as="targetPoint" />
          </mxGeometry>
        </mxCell>
        <mxCell id="1-JqtQz4HQ6x28SOS2C3-24" value="" style="endArrow=open;endFill=1;endSize=12;html=1;rounded=0;entryX=1;entryY=0.5;entryDx=0;entryDy=0;" parent="1" target="1-JqtQz4HQ6x28SOS2C3-4" edge="1">
          <mxGeometry width="160" relative="1" as="geometry">
            <mxPoint x="430" y="89.5" as="sourcePoint" />
            <mxPoint x="350" y="120" as="targetPoint" />
          </mxGeometry>
        </mxCell>
        <mxCell id="1-JqtQz4HQ6x28SOS2C3-25" value="" style="endArrow=open;endFill=1;endSize=12;html=1;rounded=0;" parent="1" target="1-JqtQz4HQ6x28SOS2C3-4" edge="1">
          <mxGeometry width="160" relative="1" as="geometry">
            <mxPoint x="430" y="139.5" as="sourcePoint" />
            <mxPoint x="350" y="170" as="targetPoint" />
          </mxGeometry>
        </mxCell>
        <mxCell id="1-JqtQz4HQ6x28SOS2C3-26" value="" style="endArrow=open;endFill=1;endSize=12;html=1;rounded=0;entryX=0.786;entryY=1;entryDx=0;entryDy=0;entryPerimeter=0;" parent="1" target="1-JqtQz4HQ6x28SOS2C3-4" edge="1">
          <mxGeometry width="160" relative="1" as="geometry">
            <mxPoint x="430" y="186.5" as="sourcePoint" />
            <mxPoint x="300" y="140" as="targetPoint" />
          </mxGeometry>
        </mxCell>
        <mxCell id="1-JqtQz4HQ6x28SOS2C3-27" value="listar cuentas" style="ellipse;whiteSpace=wrap;html=1;" parent="1" vertex="1">
          <mxGeometry x="420" y="220" width="140" height="30" as="geometry" />
        </mxCell>
        <mxCell id="1-JqtQz4HQ6x28SOS2C3-28" value="obtener detalle" style="ellipse;whiteSpace=wrap;html=1;" parent="1" vertex="1">
          <mxGeometry x="420" y="260" width="140" height="30" as="geometry" />
        </mxCell>
        <mxCell id="1-JqtQz4HQ6x28SOS2C3-29" value="eliminar" style="ellipse;whiteSpace=wrap;html=1;" parent="1" vertex="1">
          <mxGeometry x="420" y="300" width="140" height="30" as="geometry" />
        </mxCell>
        <mxCell id="1-JqtQz4HQ6x28SOS2C3-30" value="" style="endArrow=open;endFill=1;endSize=12;html=1;rounded=0;" parent="1" edge="1">
          <mxGeometry width="160" relative="1" as="geometry">
            <mxPoint x="420" y="234.5" as="sourcePoint" />
            <mxPoint x="320" y="250" as="targetPoint" />
          </mxGeometry>
        </mxCell>
        <mxCell id="1-JqtQz4HQ6x28SOS2C3-31" value="" style="endArrow=open;endFill=1;endSize=12;html=1;rounded=0;" parent="1" edge="1">
          <mxGeometry width="160" relative="1" as="geometry">
            <mxPoint x="420" y="274.5" as="sourcePoint" />
            <mxPoint x="320" y="260" as="targetPoint" />
          </mxGeometry>
        </mxCell>
        <mxCell id="1-JqtQz4HQ6x28SOS2C3-32" value="" style="endArrow=open;endFill=1;endSize=12;html=1;rounded=0;entryX=1;entryY=0.5;entryDx=0;entryDy=0;exitX=0;exitY=0.5;exitDx=0;exitDy=0;" parent="1" source="1-JqtQz4HQ6x28SOS2C3-29" edge="1">
          <mxGeometry width="160" relative="1" as="geometry">
            <mxPoint x="400" y="290" as="sourcePoint" />
            <mxPoint x="290" y="275.5" as="targetPoint" />
          </mxGeometry>
        </mxCell>
        <mxCell id="1-JqtQz4HQ6x28SOS2C3-33" value="" style="endArrow=open;endFill=1;endSize=12;html=1;rounded=0;entryX=0;entryY=1;entryDx=0;entryDy=0;" parent="1" target="1-JqtQz4HQ6x28SOS2C3-5" edge="1">
          <mxGeometry width="160" relative="1" as="geometry">
            <mxPoint x="65" y="459.5" as="sourcePoint" />
            <mxPoint x="200" y="375.5" as="targetPoint" />
          </mxGeometry>
        </mxCell>
        <mxCell id="1-JqtQz4HQ6x28SOS2C3-35" value="" style="endArrow=none;html=1;rounded=0;" parent="1" edge="1">
          <mxGeometry width="50" height="50" relative="1" as="geometry">
            <mxPoint x="120" y="520" as="sourcePoint" />
            <mxPoint x="120" y="10" as="targetPoint" />
          </mxGeometry>
        </mxCell>
        <mxCell id="1-JqtQz4HQ6x28SOS2C3-36" value="" style="endArrow=none;html=1;rounded=0;" parent="1" edge="1">
          <mxGeometry width="50" height="50" relative="1" as="geometry">
            <mxPoint x="120" y="520" as="sourcePoint" />
            <mxPoint x="800" y="520" as="targetPoint" />
          </mxGeometry>
        </mxCell>
        <mxCell id="1-JqtQz4HQ6x28SOS2C3-37" value="" style="endArrow=none;html=1;rounded=0;" parent="1" edge="1">
          <mxGeometry width="50" height="50" relative="1" as="geometry">
            <mxPoint x="800" y="520" as="sourcePoint" />
            <mxPoint x="800" y="10" as="targetPoint" />
          </mxGeometry>
        </mxCell>
        <mxCell id="1-JqtQz4HQ6x28SOS2C3-38" value="" style="endArrow=none;html=1;rounded=0;" parent="1" edge="1">
          <mxGeometry width="50" height="50" relative="1" as="geometry">
            <mxPoint x="120" y="10" as="sourcePoint" />
            <mxPoint x="800" y="10" as="targetPoint" />
          </mxGeometry>
        </mxCell>
      </root>
    </mxGraphModel>
  </diagram>
  <diagram id="pjWgi3G98cuecPTRoM95" name="Secuencia crear cliente">
    <mxGraphModel dx="1050" dy="530" grid="1" gridSize="10" guides="1" tooltips="1" connect="1" arrows="1" fold="1" page="1" pageScale="1" pageWidth="827" pageHeight="1169" math="0" shadow="0">
      <root>
        <mxCell id="0" />
        <mxCell id="1" parent="0" />
        <mxCell id="SuSOlvwqq2dJx2L392Fv-1" value="Cliente" style="shape=umlActor;verticalLabelPosition=bottom;verticalAlign=top;html=1;" vertex="1" parent="1">
          <mxGeometry x="70" y="50" width="30" height="60" as="geometry" />
        </mxCell>
        <mxCell id="SuSOlvwqq2dJx2L392Fv-2" value="" style="html=1;points=[[0,0,0,0,5],[0,1,0,0,-5],[1,0,0,0,5],[1,1,0,0,-5]];perimeter=orthogonalPerimeter;outlineConnect=0;targetShapes=umlLifeline;portConstraint=eastwest;newEdgeStyle={&quot;curved&quot;:0,&quot;rounded&quot;:0};" vertex="1" parent="1">
          <mxGeometry x="80" y="160" width="10" height="240" as="geometry" />
        </mxCell>
        <mxCell id="SuSOlvwqq2dJx2L392Fv-3" value="Cajero" style="shape=umlActor;verticalLabelPosition=bottom;verticalAlign=top;html=1;" vertex="1" parent="1">
          <mxGeometry x="230" y="50" width="30" height="60" as="geometry" />
        </mxCell>
        <mxCell id="SuSOlvwqq2dJx2L392Fv-4" value="" style="html=1;points=[[0,0,0,0,5],[0,1,0,0,-5],[1,0,0,0,5],[1,1,0,0,-5]];perimeter=orthogonalPerimeter;outlineConnect=0;targetShapes=umlLifeline;portConstraint=eastwest;newEdgeStyle={&quot;curved&quot;:0,&quot;rounded&quot;:0};" vertex="1" parent="1">
          <mxGeometry x="240" y="160" width="10" height="240" as="geometry" />
        </mxCell>
        <mxCell id="SuSOlvwqq2dJx2L392Fv-5" value="Aplicación" style="html=1;whiteSpace=wrap;" vertex="1" parent="1">
          <mxGeometry x="359" y="90" width="110" height="20" as="geometry" />
        </mxCell>
        <mxCell id="SuSOlvwqq2dJx2L392Fv-6" value="" style="html=1;points=[[0,0,0,0,5],[0,1,0,0,-5],[1,0,0,0,5],[1,1,0,0,-5]];perimeter=orthogonalPerimeter;outlineConnect=0;targetShapes=umlLifeline;portConstraint=eastwest;newEdgeStyle={&quot;curved&quot;:0,&quot;rounded&quot;:0};" vertex="1" parent="1">
          <mxGeometry x="400" y="160" width="10" height="240" as="geometry" />
        </mxCell>
        <mxCell id="SuSOlvwqq2dJx2L392Fv-7" value="BD" style="html=1;whiteSpace=wrap;" vertex="1" parent="1">
          <mxGeometry x="570" y="90" width="110" height="20" as="geometry" />
        </mxCell>
        <mxCell id="SuSOlvwqq2dJx2L392Fv-8" value="" style="html=1;points=[[0,0,0,0,5],[0,1,0,0,-5],[1,0,0,0,5],[1,1,0,0,-5]];perimeter=orthogonalPerimeter;outlineConnect=0;targetShapes=umlLifeline;portConstraint=eastwest;newEdgeStyle={&quot;curved&quot;:0,&quot;rounded&quot;:0};" vertex="1" parent="1">
          <mxGeometry x="630" y="160" width="10" height="240" as="geometry" />
        </mxCell>
        <mxCell id="SuSOlvwqq2dJx2L392Fv-9" value="" style="endArrow=none;dashed=1;html=1;dashPattern=1 3;strokeWidth=2;rounded=0;" edge="1" parent="1">
          <mxGeometry width="50" height="50" relative="1" as="geometry">
            <mxPoint x="84.5" y="160" as="sourcePoint" />
            <mxPoint x="84.5" y="130" as="targetPoint" />
          </mxGeometry>
        </mxCell>
        <mxCell id="SuSOlvwqq2dJx2L392Fv-10" value="" style="endArrow=none;dashed=1;html=1;dashPattern=1 3;strokeWidth=2;rounded=0;" edge="1" parent="1">
          <mxGeometry width="50" height="50" relative="1" as="geometry">
            <mxPoint x="244.5" y="160" as="sourcePoint" />
            <mxPoint x="244.5" y="130" as="targetPoint" />
          </mxGeometry>
        </mxCell>
        <mxCell id="SuSOlvwqq2dJx2L392Fv-11" value="" style="endArrow=none;dashed=1;html=1;dashPattern=1 3;strokeWidth=2;rounded=0;entryX=0.42;entryY=1.12;entryDx=0;entryDy=0;entryPerimeter=0;" edge="1" parent="1" target="SuSOlvwqq2dJx2L392Fv-5">
          <mxGeometry width="50" height="50" relative="1" as="geometry">
            <mxPoint x="404.5" y="160" as="sourcePoint" />
            <mxPoint x="404.5" y="130" as="targetPoint" />
          </mxGeometry>
        </mxCell>
        <mxCell id="SuSOlvwqq2dJx2L392Fv-12" value="" style="endArrow=none;dashed=1;html=1;dashPattern=1 3;strokeWidth=2;rounded=0;entryX=0.589;entryY=1.16;entryDx=0;entryDy=0;entryPerimeter=0;" edge="1" parent="1" target="SuSOlvwqq2dJx2L392Fv-7">
          <mxGeometry width="50" height="50" relative="1" as="geometry">
            <mxPoint x="634.5" y="160" as="sourcePoint" />
            <mxPoint x="634.5" y="130" as="targetPoint" />
          </mxGeometry>
        </mxCell>
        <mxCell id="SuSOlvwqq2dJx2L392Fv-15" value="" style="endArrow=open;endFill=1;endSize=12;html=1;rounded=0;" edge="1" parent="1">
          <mxGeometry width="160" relative="1" as="geometry">
            <mxPoint x="90" y="192" as="sourcePoint" />
            <mxPoint x="240" y="192" as="targetPoint" />
          </mxGeometry>
        </mxCell>
        <mxCell id="SuSOlvwqq2dJx2L392Fv-16" value="1 Brindar datos" style="text;align=center;fontStyle=1;verticalAlign=middle;spacingLeft=3;spacingRight=3;strokeColor=none;rotatable=0;points=[[0,0.5],[1,0.5]];portConstraint=eastwest;html=1;" vertex="1" parent="1">
          <mxGeometry x="120" y="160" width="80" height="26" as="geometry" />
        </mxCell>
        <mxCell id="SuSOlvwqq2dJx2L392Fv-18" value="" style="endArrow=open;endFill=1;endSize=12;html=1;rounded=0;" edge="1" parent="1">
          <mxGeometry width="160" relative="1" as="geometry">
            <mxPoint x="250" y="190" as="sourcePoint" />
            <mxPoint x="400" y="190" as="targetPoint" />
          </mxGeometry>
        </mxCell>
        <mxCell id="SuSOlvwqq2dJx2L392Fv-19" value="2 Ingresar datos" style="text;align=center;fontStyle=1;verticalAlign=middle;spacingLeft=3;spacingRight=3;strokeColor=none;rotatable=0;points=[[0,0.5],[1,0.5]];portConstraint=eastwest;html=1;" vertex="1" parent="1">
          <mxGeometry x="270" y="160" width="100" height="26" as="geometry" />
        </mxCell>
        <mxCell id="SuSOlvwqq2dJx2L392Fv-20" value="" style="endArrow=open;endFill=1;endSize=12;html=1;rounded=0;" edge="1" parent="1">
          <mxGeometry width="160" relative="1" as="geometry">
            <mxPoint x="410" y="200" as="sourcePoint" />
            <mxPoint x="630" y="200" as="targetPoint" />
          </mxGeometry>
        </mxCell>
        <mxCell id="SuSOlvwqq2dJx2L392Fv-21" value="3 Validar datos" style="text;align=center;fontStyle=1;verticalAlign=middle;spacingLeft=3;spacingRight=3;strokeColor=none;rotatable=0;points=[[0,0.5],[1,0.5]];portConstraint=eastwest;html=1;" vertex="1" parent="1">
          <mxGeometry x="440" y="170" width="160" height="26" as="geometry" />
        </mxCell>
        <mxCell id="SuSOlvwqq2dJx2L392Fv-22" value="" style="endArrow=block;dashed=1;endFill=0;endSize=12;html=1;rounded=0;" edge="1" parent="1" source="SuSOlvwqq2dJx2L392Fv-8">
          <mxGeometry width="160" relative="1" as="geometry">
            <mxPoint x="530" y="250" as="sourcePoint" />
            <mxPoint x="410" y="250" as="targetPoint" />
          </mxGeometry>
        </mxCell>
        <mxCell id="SuSOlvwqq2dJx2L392Fv-23" value="4 datos validados" style="text;align=center;fontStyle=1;verticalAlign=middle;spacingLeft=3;spacingRight=3;strokeColor=none;rotatable=0;points=[[0,0.5],[1,0.5]];portConstraint=eastwest;html=1;" vertex="1" parent="1">
          <mxGeometry x="450" y="220" width="160" height="26" as="geometry" />
        </mxCell>
        <mxCell id="SuSOlvwqq2dJx2L392Fv-24" value="" style="endArrow=open;endFill=1;endSize=12;html=1;rounded=0;" edge="1" parent="1">
          <mxGeometry width="160" relative="1" as="geometry">
            <mxPoint x="414" y="300" as="sourcePoint" />
            <mxPoint x="634" y="300" as="targetPoint" />
          </mxGeometry>
        </mxCell>
        <mxCell id="SuSOlvwqq2dJx2L392Fv-25" value="5 crear cliente" style="text;align=center;fontStyle=1;verticalAlign=middle;spacingLeft=3;spacingRight=3;strokeColor=none;rotatable=0;points=[[0,0.5],[1,0.5]];portConstraint=eastwest;html=1;" vertex="1" parent="1">
          <mxGeometry x="450" y="270" width="160" height="26" as="geometry" />
        </mxCell>
        <mxCell id="SuSOlvwqq2dJx2L392Fv-26" value="" style="endArrow=block;dashed=1;endFill=0;endSize=12;html=1;rounded=0;" edge="1" parent="1">
          <mxGeometry width="160" relative="1" as="geometry">
            <mxPoint x="630" y="350" as="sourcePoint" />
            <mxPoint x="410" y="350" as="targetPoint" />
          </mxGeometry>
        </mxCell>
        <mxCell id="SuSOlvwqq2dJx2L392Fv-27" value="6 cliente creado" style="text;align=center;fontStyle=1;verticalAlign=middle;spacingLeft=3;spacingRight=3;strokeColor=none;rotatable=0;points=[[0,0.5],[1,0.5]];portConstraint=eastwest;html=1;" vertex="1" parent="1">
          <mxGeometry x="450" y="320" width="160" height="26" as="geometry" />
        </mxCell>
        <mxCell id="SuSOlvwqq2dJx2L392Fv-28" value="" style="endArrow=open;endFill=1;endSize=12;html=1;rounded=0;" edge="1" parent="1" target="SuSOlvwqq2dJx2L392Fv-4">
          <mxGeometry width="160" relative="1" as="geometry">
            <mxPoint x="400" y="370" as="sourcePoint" />
            <mxPoint x="300" y="370" as="targetPoint" />
          </mxGeometry>
        </mxCell>
        <mxCell id="SuSOlvwqq2dJx2L392Fv-29" value="7 Alta cliente" style="text;align=center;fontStyle=1;verticalAlign=middle;spacingLeft=3;spacingRight=3;strokeColor=none;rotatable=0;points=[[0,0.5],[1,0.5]];portConstraint=eastwest;html=1;" vertex="1" parent="1">
          <mxGeometry x="270" y="340" width="120" height="26" as="geometry" />
        </mxCell>
        <mxCell id="SuSOlvwqq2dJx2L392Fv-30" value="8 Confirmación" style="text;align=center;fontStyle=1;verticalAlign=middle;spacingLeft=3;spacingRight=3;strokeColor=none;rotatable=0;points=[[0,0.5],[1,0.5]];portConstraint=eastwest;html=1;" vertex="1" parent="1">
          <mxGeometry x="100" y="340" width="120" height="26" as="geometry" />
        </mxCell>
        <mxCell id="SuSOlvwqq2dJx2L392Fv-31" value="" style="endArrow=open;endFill=1;endSize=12;html=1;rounded=0;" edge="1" parent="1">
          <mxGeometry width="160" relative="1" as="geometry">
            <mxPoint x="235" y="366" as="sourcePoint" />
            <mxPoint x="90" y="366" as="targetPoint" />
          </mxGeometry>
        </mxCell>
      </root>
    </mxGraphModel>
  </diagram>
  <diagram name="Secuencia crear cuenta" id="7YQ8rzMds7HGRaxLz8hR">
    <mxGraphModel dx="1050" dy="530" grid="1" gridSize="10" guides="1" tooltips="1" connect="1" arrows="1" fold="1" page="1" pageScale="1" pageWidth="827" pageHeight="1169" math="0" shadow="0">
      <root>
        <mxCell id="nQMNsAskqIJRQyqd-_fx-0" />
        <mxCell id="nQMNsAskqIJRQyqd-_fx-1" parent="nQMNsAskqIJRQyqd-_fx-0" />
        <mxCell id="nQMNsAskqIJRQyqd-_fx-2" value="Cliente" style="shape=umlActor;verticalLabelPosition=bottom;verticalAlign=top;html=1;" vertex="1" parent="nQMNsAskqIJRQyqd-_fx-1">
          <mxGeometry x="70" y="50" width="30" height="60" as="geometry" />
        </mxCell>
        <mxCell id="nQMNsAskqIJRQyqd-_fx-3" value="" style="html=1;points=[[0,0,0,0,5],[0,1,0,0,-5],[1,0,0,0,5],[1,1,0,0,-5]];perimeter=orthogonalPerimeter;outlineConnect=0;targetShapes=umlLifeline;portConstraint=eastwest;newEdgeStyle={&quot;curved&quot;:0,&quot;rounded&quot;:0};" vertex="1" parent="nQMNsAskqIJRQyqd-_fx-1">
          <mxGeometry x="80" y="160" width="10" height="240" as="geometry" />
        </mxCell>
        <mxCell id="nQMNsAskqIJRQyqd-_fx-4" value="Cajero" style="shape=umlActor;verticalLabelPosition=bottom;verticalAlign=top;html=1;" vertex="1" parent="nQMNsAskqIJRQyqd-_fx-1">
          <mxGeometry x="230" y="50" width="30" height="60" as="geometry" />
        </mxCell>
        <mxCell id="nQMNsAskqIJRQyqd-_fx-5" value="" style="html=1;points=[[0,0,0,0,5],[0,1,0,0,-5],[1,0,0,0,5],[1,1,0,0,-5]];perimeter=orthogonalPerimeter;outlineConnect=0;targetShapes=umlLifeline;portConstraint=eastwest;newEdgeStyle={&quot;curved&quot;:0,&quot;rounded&quot;:0};" vertex="1" parent="nQMNsAskqIJRQyqd-_fx-1">
          <mxGeometry x="240" y="160" width="10" height="240" as="geometry" />
        </mxCell>
        <mxCell id="nQMNsAskqIJRQyqd-_fx-6" value="Aplicación" style="html=1;whiteSpace=wrap;" vertex="1" parent="nQMNsAskqIJRQyqd-_fx-1">
          <mxGeometry x="359" y="90" width="110" height="20" as="geometry" />
        </mxCell>
        <mxCell id="nQMNsAskqIJRQyqd-_fx-7" value="" style="html=1;points=[[0,0,0,0,5],[0,1,0,0,-5],[1,0,0,0,5],[1,1,0,0,-5]];perimeter=orthogonalPerimeter;outlineConnect=0;targetShapes=umlLifeline;portConstraint=eastwest;newEdgeStyle={&quot;curved&quot;:0,&quot;rounded&quot;:0};" vertex="1" parent="nQMNsAskqIJRQyqd-_fx-1">
          <mxGeometry x="400" y="160" width="10" height="240" as="geometry" />
        </mxCell>
        <mxCell id="nQMNsAskqIJRQyqd-_fx-8" value="BD" style="html=1;whiteSpace=wrap;" vertex="1" parent="nQMNsAskqIJRQyqd-_fx-1">
          <mxGeometry x="570" y="90" width="110" height="20" as="geometry" />
        </mxCell>
        <mxCell id="nQMNsAskqIJRQyqd-_fx-9" value="" style="html=1;points=[[0,0,0,0,5],[0,1,0,0,-5],[1,0,0,0,5],[1,1,0,0,-5]];perimeter=orthogonalPerimeter;outlineConnect=0;targetShapes=umlLifeline;portConstraint=eastwest;newEdgeStyle={&quot;curved&quot;:0,&quot;rounded&quot;:0};" vertex="1" parent="nQMNsAskqIJRQyqd-_fx-1">
          <mxGeometry x="630" y="160" width="10" height="240" as="geometry" />
        </mxCell>
        <mxCell id="nQMNsAskqIJRQyqd-_fx-10" value="" style="endArrow=none;dashed=1;html=1;dashPattern=1 3;strokeWidth=2;rounded=0;" edge="1" parent="nQMNsAskqIJRQyqd-_fx-1">
          <mxGeometry width="50" height="50" relative="1" as="geometry">
            <mxPoint x="84.5" y="160" as="sourcePoint" />
            <mxPoint x="84.5" y="130" as="targetPoint" />
          </mxGeometry>
        </mxCell>
        <mxCell id="nQMNsAskqIJRQyqd-_fx-11" value="" style="endArrow=none;dashed=1;html=1;dashPattern=1 3;strokeWidth=2;rounded=0;" edge="1" parent="nQMNsAskqIJRQyqd-_fx-1">
          <mxGeometry width="50" height="50" relative="1" as="geometry">
            <mxPoint x="244.5" y="160" as="sourcePoint" />
            <mxPoint x="244.5" y="130" as="targetPoint" />
          </mxGeometry>
        </mxCell>
        <mxCell id="nQMNsAskqIJRQyqd-_fx-12" value="" style="endArrow=none;dashed=1;html=1;dashPattern=1 3;strokeWidth=2;rounded=0;entryX=0.42;entryY=1.12;entryDx=0;entryDy=0;entryPerimeter=0;" edge="1" parent="nQMNsAskqIJRQyqd-_fx-1" target="nQMNsAskqIJRQyqd-_fx-6">
          <mxGeometry width="50" height="50" relative="1" as="geometry">
            <mxPoint x="404.5" y="160" as="sourcePoint" />
            <mxPoint x="404.5" y="130" as="targetPoint" />
          </mxGeometry>
        </mxCell>
        <mxCell id="nQMNsAskqIJRQyqd-_fx-13" value="" style="endArrow=none;dashed=1;html=1;dashPattern=1 3;strokeWidth=2;rounded=0;entryX=0.589;entryY=1.16;entryDx=0;entryDy=0;entryPerimeter=0;" edge="1" parent="nQMNsAskqIJRQyqd-_fx-1" target="nQMNsAskqIJRQyqd-_fx-8">
          <mxGeometry width="50" height="50" relative="1" as="geometry">
            <mxPoint x="634.5" y="160" as="sourcePoint" />
            <mxPoint x="634.5" y="130" as="targetPoint" />
          </mxGeometry>
        </mxCell>
        <mxCell id="nQMNsAskqIJRQyqd-_fx-14" value="" style="endArrow=open;endFill=1;endSize=12;html=1;rounded=0;" edge="1" parent="nQMNsAskqIJRQyqd-_fx-1">
          <mxGeometry width="160" relative="1" as="geometry">
            <mxPoint x="90" y="192" as="sourcePoint" />
            <mxPoint x="240" y="192" as="targetPoint" />
          </mxGeometry>
        </mxCell>
        <mxCell id="nQMNsAskqIJRQyqd-_fx-15" value="1 Brindar datos" style="text;align=center;fontStyle=1;verticalAlign=middle;spacingLeft=3;spacingRight=3;strokeColor=none;rotatable=0;points=[[0,0.5],[1,0.5]];portConstraint=eastwest;html=1;" vertex="1" parent="nQMNsAskqIJRQyqd-_fx-1">
          <mxGeometry x="120" y="160" width="80" height="26" as="geometry" />
        </mxCell>
        <mxCell id="nQMNsAskqIJRQyqd-_fx-16" value="" style="endArrow=open;endFill=1;endSize=12;html=1;rounded=0;" edge="1" parent="nQMNsAskqIJRQyqd-_fx-1">
          <mxGeometry width="160" relative="1" as="geometry">
            <mxPoint x="250" y="190" as="sourcePoint" />
            <mxPoint x="400" y="190" as="targetPoint" />
          </mxGeometry>
        </mxCell>
        <mxCell id="nQMNsAskqIJRQyqd-_fx-17" value="2 Ingresar datos" style="text;align=center;fontStyle=1;verticalAlign=middle;spacingLeft=3;spacingRight=3;strokeColor=none;rotatable=0;points=[[0,0.5],[1,0.5]];portConstraint=eastwest;html=1;" vertex="1" parent="nQMNsAskqIJRQyqd-_fx-1">
          <mxGeometry x="270" y="160" width="100" height="26" as="geometry" />
        </mxCell>
        <mxCell id="nQMNsAskqIJRQyqd-_fx-18" value="" style="endArrow=open;endFill=1;endSize=12;html=1;rounded=0;" edge="1" parent="nQMNsAskqIJRQyqd-_fx-1">
          <mxGeometry width="160" relative="1" as="geometry">
            <mxPoint x="410" y="200" as="sourcePoint" />
            <mxPoint x="630" y="200" as="targetPoint" />
          </mxGeometry>
        </mxCell>
        <mxCell id="nQMNsAskqIJRQyqd-_fx-19" value="3 Validar datos" style="text;align=center;fontStyle=1;verticalAlign=middle;spacingLeft=3;spacingRight=3;strokeColor=none;rotatable=0;points=[[0,0.5],[1,0.5]];portConstraint=eastwest;html=1;" vertex="1" parent="nQMNsAskqIJRQyqd-_fx-1">
          <mxGeometry x="440" y="170" width="160" height="26" as="geometry" />
        </mxCell>
        <mxCell id="nQMNsAskqIJRQyqd-_fx-20" value="" style="endArrow=block;dashed=1;endFill=0;endSize=12;html=1;rounded=0;" edge="1" parent="nQMNsAskqIJRQyqd-_fx-1" source="nQMNsAskqIJRQyqd-_fx-9">
          <mxGeometry width="160" relative="1" as="geometry">
            <mxPoint x="530" y="250" as="sourcePoint" />
            <mxPoint x="410" y="250" as="targetPoint" />
          </mxGeometry>
        </mxCell>
        <mxCell id="nQMNsAskqIJRQyqd-_fx-21" value="4 datos validados" style="text;align=center;fontStyle=1;verticalAlign=middle;spacingLeft=3;spacingRight=3;strokeColor=none;rotatable=0;points=[[0,0.5],[1,0.5]];portConstraint=eastwest;html=1;" vertex="1" parent="nQMNsAskqIJRQyqd-_fx-1">
          <mxGeometry x="450" y="220" width="160" height="26" as="geometry" />
        </mxCell>
        <mxCell id="nQMNsAskqIJRQyqd-_fx-22" value="" style="endArrow=open;endFill=1;endSize=12;html=1;rounded=0;" edge="1" parent="nQMNsAskqIJRQyqd-_fx-1">
          <mxGeometry width="160" relative="1" as="geometry">
            <mxPoint x="414" y="300" as="sourcePoint" />
            <mxPoint x="634" y="300" as="targetPoint" />
          </mxGeometry>
        </mxCell>
        <mxCell id="nQMNsAskqIJRQyqd-_fx-23" value="5 crear cuenta" style="text;align=center;fontStyle=1;verticalAlign=middle;spacingLeft=3;spacingRight=3;strokeColor=none;rotatable=0;points=[[0,0.5],[1,0.5]];portConstraint=eastwest;html=1;" vertex="1" parent="nQMNsAskqIJRQyqd-_fx-1">
          <mxGeometry x="450" y="270" width="160" height="26" as="geometry" />
        </mxCell>
        <mxCell id="nQMNsAskqIJRQyqd-_fx-24" value="" style="endArrow=block;dashed=1;endFill=0;endSize=12;html=1;rounded=0;" edge="1" parent="nQMNsAskqIJRQyqd-_fx-1">
          <mxGeometry width="160" relative="1" as="geometry">
            <mxPoint x="630" y="350" as="sourcePoint" />
            <mxPoint x="410" y="350" as="targetPoint" />
          </mxGeometry>
        </mxCell>
        <mxCell id="nQMNsAskqIJRQyqd-_fx-25" value="6 cuenta creada" style="text;align=center;fontStyle=1;verticalAlign=middle;spacingLeft=3;spacingRight=3;strokeColor=none;rotatable=0;points=[[0,0.5],[1,0.5]];portConstraint=eastwest;html=1;" vertex="1" parent="nQMNsAskqIJRQyqd-_fx-1">
          <mxGeometry x="450" y="320" width="160" height="26" as="geometry" />
        </mxCell>
        <mxCell id="nQMNsAskqIJRQyqd-_fx-26" value="" style="endArrow=open;endFill=1;endSize=12;html=1;rounded=0;" edge="1" parent="nQMNsAskqIJRQyqd-_fx-1" target="nQMNsAskqIJRQyqd-_fx-5">
          <mxGeometry width="160" relative="1" as="geometry">
            <mxPoint x="400" y="370" as="sourcePoint" />
            <mxPoint x="300" y="370" as="targetPoint" />
          </mxGeometry>
        </mxCell>
        <mxCell id="nQMNsAskqIJRQyqd-_fx-27" value="7 Alta de cuenta" style="text;align=center;fontStyle=1;verticalAlign=middle;spacingLeft=3;spacingRight=3;strokeColor=none;rotatable=0;points=[[0,0.5],[1,0.5]];portConstraint=eastwest;html=1;" vertex="1" parent="nQMNsAskqIJRQyqd-_fx-1">
          <mxGeometry x="270" y="340" width="120" height="26" as="geometry" />
        </mxCell>
        <mxCell id="nQMNsAskqIJRQyqd-_fx-28" value="8 Confirmación" style="text;align=center;fontStyle=1;verticalAlign=middle;spacingLeft=3;spacingRight=3;strokeColor=none;rotatable=0;points=[[0,0.5],[1,0.5]];portConstraint=eastwest;html=1;" vertex="1" parent="nQMNsAskqIJRQyqd-_fx-1">
          <mxGeometry x="100" y="340" width="120" height="26" as="geometry" />
        </mxCell>
        <mxCell id="nQMNsAskqIJRQyqd-_fx-29" value="" style="endArrow=open;endFill=1;endSize=12;html=1;rounded=0;" edge="1" parent="nQMNsAskqIJRQyqd-_fx-1">
          <mxGeometry width="160" relative="1" as="geometry">
            <mxPoint x="235" y="366" as="sourcePoint" />
            <mxPoint x="90" y="366" as="targetPoint" />
          </mxGeometry>
        </mxCell>
      </root>
    </mxGraphModel>
  </diagram>
  <diagram name="Secuencia transaccion" id="6LlXnSILI_FadSU4Xe-r">
    <mxGraphModel dx="1050" dy="530" grid="1" gridSize="10" guides="1" tooltips="1" connect="1" arrows="1" fold="1" page="1" pageScale="1" pageWidth="827" pageHeight="1169" math="0" shadow="0">
      <root>
        <mxCell id="BNHYbR2AQXxjbn7Fuvar-0" />
        <mxCell id="BNHYbR2AQXxjbn7Fuvar-1" parent="BNHYbR2AQXxjbn7Fuvar-0" />
        <mxCell id="BNHYbR2AQXxjbn7Fuvar-2" value="Cliente" style="shape=umlActor;verticalLabelPosition=bottom;verticalAlign=top;html=1;" vertex="1" parent="BNHYbR2AQXxjbn7Fuvar-1">
          <mxGeometry x="70" y="50" width="30" height="60" as="geometry" />
        </mxCell>
        <mxCell id="BNHYbR2AQXxjbn7Fuvar-3" value="" style="html=1;points=[[0,0,0,0,5],[0,1,0,0,-5],[1,0,0,0,5],[1,1,0,0,-5]];perimeter=orthogonalPerimeter;outlineConnect=0;targetShapes=umlLifeline;portConstraint=eastwest;newEdgeStyle={&quot;curved&quot;:0,&quot;rounded&quot;:0};" vertex="1" parent="BNHYbR2AQXxjbn7Fuvar-1">
          <mxGeometry x="80" y="160" width="10" height="340" as="geometry" />
        </mxCell>
        <mxCell id="BNHYbR2AQXxjbn7Fuvar-4" value="Cajero" style="shape=umlActor;verticalLabelPosition=bottom;verticalAlign=top;html=1;" vertex="1" parent="BNHYbR2AQXxjbn7Fuvar-1">
          <mxGeometry x="230" y="50" width="30" height="60" as="geometry" />
        </mxCell>
        <mxCell id="BNHYbR2AQXxjbn7Fuvar-5" value="" style="html=1;points=[[0,0,0,0,5],[0,1,0,0,-5],[1,0,0,0,5],[1,1,0,0,-5]];perimeter=orthogonalPerimeter;outlineConnect=0;targetShapes=umlLifeline;portConstraint=eastwest;newEdgeStyle={&quot;curved&quot;:0,&quot;rounded&quot;:0};" vertex="1" parent="BNHYbR2AQXxjbn7Fuvar-1">
          <mxGeometry x="240" y="160" width="10" height="340" as="geometry" />
        </mxCell>
        <mxCell id="BNHYbR2AQXxjbn7Fuvar-6" value="Aplicación" style="html=1;whiteSpace=wrap;" vertex="1" parent="BNHYbR2AQXxjbn7Fuvar-1">
          <mxGeometry x="359" y="90" width="110" height="20" as="geometry" />
        </mxCell>
        <mxCell id="BNHYbR2AQXxjbn7Fuvar-9" value="" style="html=1;points=[[0,0,0,0,5],[0,1,0,0,-5],[1,0,0,0,5],[1,1,0,0,-5]];perimeter=orthogonalPerimeter;outlineConnect=0;targetShapes=umlLifeline;portConstraint=eastwest;newEdgeStyle={&quot;curved&quot;:0,&quot;rounded&quot;:0};" vertex="1" parent="BNHYbR2AQXxjbn7Fuvar-1">
          <mxGeometry x="400" y="160" width="10" height="340" as="geometry" />
        </mxCell>
        <mxCell id="BNHYbR2AQXxjbn7Fuvar-10" value="" style="endArrow=none;dashed=1;html=1;dashPattern=1 3;strokeWidth=2;rounded=0;" edge="1" parent="BNHYbR2AQXxjbn7Fuvar-1">
          <mxGeometry width="50" height="50" relative="1" as="geometry">
            <mxPoint x="84.5" y="160" as="sourcePoint" />
            <mxPoint x="84.5" y="130" as="targetPoint" />
          </mxGeometry>
        </mxCell>
        <mxCell id="BNHYbR2AQXxjbn7Fuvar-11" value="" style="endArrow=none;dashed=1;html=1;dashPattern=1 3;strokeWidth=2;rounded=0;" edge="1" parent="BNHYbR2AQXxjbn7Fuvar-1">
          <mxGeometry width="50" height="50" relative="1" as="geometry">
            <mxPoint x="244.5" y="160" as="sourcePoint" />
            <mxPoint x="244.5" y="130" as="targetPoint" />
          </mxGeometry>
        </mxCell>
        <mxCell id="BNHYbR2AQXxjbn7Fuvar-12" value="" style="endArrow=none;dashed=1;html=1;dashPattern=1 3;strokeWidth=2;rounded=0;entryX=0.42;entryY=1.12;entryDx=0;entryDy=0;entryPerimeter=0;" edge="1" parent="BNHYbR2AQXxjbn7Fuvar-1" target="BNHYbR2AQXxjbn7Fuvar-6">
          <mxGeometry width="50" height="50" relative="1" as="geometry">
            <mxPoint x="404.5" y="160" as="sourcePoint" />
            <mxPoint x="404.5" y="130" as="targetPoint" />
          </mxGeometry>
        </mxCell>
        <mxCell id="BNHYbR2AQXxjbn7Fuvar-14" value="" style="endArrow=open;endFill=1;endSize=12;html=1;rounded=0;" edge="1" parent="BNHYbR2AQXxjbn7Fuvar-1">
          <mxGeometry width="160" relative="1" as="geometry">
            <mxPoint x="90" y="192" as="sourcePoint" />
            <mxPoint x="240" y="192" as="targetPoint" />
          </mxGeometry>
        </mxCell>
        <mxCell id="BNHYbR2AQXxjbn7Fuvar-15" value="1 Ingresar tarjeta" style="text;align=center;fontStyle=1;verticalAlign=middle;spacingLeft=3;spacingRight=3;strokeColor=none;rotatable=0;points=[[0,0.5],[1,0.5]];portConstraint=eastwest;html=1;" vertex="1" parent="BNHYbR2AQXxjbn7Fuvar-1">
          <mxGeometry x="120" y="160" width="80" height="26" as="geometry" />
        </mxCell>
        <mxCell id="BNHYbR2AQXxjbn7Fuvar-19" value="11 retirar tarjeta" style="text;align=center;fontStyle=1;verticalAlign=middle;spacingLeft=3;spacingRight=3;strokeColor=none;rotatable=0;points=[[0,0.5],[1,0.5]];portConstraint=eastwest;html=1;" vertex="1" parent="BNHYbR2AQXxjbn7Fuvar-1">
          <mxGeometry x="110" y="460" width="110" height="16" as="geometry" />
        </mxCell>
        <mxCell id="BNHYbR2AQXxjbn7Fuvar-20" value="" style="endArrow=block;dashed=1;endFill=0;endSize=12;html=1;rounded=0;" edge="1" parent="BNHYbR2AQXxjbn7Fuvar-1" source="BNHYbR2AQXxjbn7Fuvar-9">
          <mxGeometry width="160" relative="1" as="geometry">
            <mxPoint x="530" y="250" as="sourcePoint" />
            <mxPoint x="410" y="250" as="targetPoint" />
          </mxGeometry>
        </mxCell>
        <mxCell id="BNHYbR2AQXxjbn7Fuvar-21" value="4 validar datos" style="text;align=center;fontStyle=1;verticalAlign=middle;spacingLeft=3;spacingRight=3;strokeColor=none;rotatable=0;points=[[0,0.5],[1,0.5]];portConstraint=eastwest;html=1;" vertex="1" parent="BNHYbR2AQXxjbn7Fuvar-1">
          <mxGeometry x="260" y="244" width="120" height="26" as="geometry" />
        </mxCell>
        <mxCell id="BNHYbR2AQXxjbn7Fuvar-22" value="" style="endArrow=open;endFill=1;endSize=12;html=1;rounded=0;" edge="1" parent="BNHYbR2AQXxjbn7Fuvar-1">
          <mxGeometry width="160" relative="1" as="geometry">
            <mxPoint x="250" y="272" as="sourcePoint" />
            <mxPoint x="400" y="272" as="targetPoint" />
          </mxGeometry>
        </mxCell>
        <mxCell id="BNHYbR2AQXxjbn7Fuvar-23" value="5 conf saldo en cuenta" style="text;align=center;fontStyle=1;verticalAlign=middle;spacingLeft=3;spacingRight=3;strokeColor=none;rotatable=0;points=[[0,0.5],[1,0.5]];portConstraint=eastwest;html=1;" vertex="1" parent="BNHYbR2AQXxjbn7Fuvar-1">
          <mxGeometry x="270" y="280" width="110" height="26" as="geometry" />
        </mxCell>
        <mxCell id="BNHYbR2AQXxjbn7Fuvar-24" value="" style="endArrow=block;dashed=1;endFill=0;endSize=12;html=1;rounded=0;" edge="1" parent="BNHYbR2AQXxjbn7Fuvar-1" source="BNHYbR2AQXxjbn7Fuvar-9">
          <mxGeometry width="160" relative="1" as="geometry">
            <mxPoint x="380" y="316" as="sourcePoint" />
            <mxPoint x="250" y="316" as="targetPoint" />
          </mxGeometry>
        </mxCell>
        <mxCell id="BNHYbR2AQXxjbn7Fuvar-25" value="6 mostrar opc ret / dep" style="text;align=center;fontStyle=1;verticalAlign=middle;spacingLeft=3;spacingRight=3;strokeColor=none;rotatable=0;points=[[0,0.5],[1,0.5]];portConstraint=eastwest;html=1;" vertex="1" parent="BNHYbR2AQXxjbn7Fuvar-1">
          <mxGeometry x="110" y="300" width="120" height="26" as="geometry" />
        </mxCell>
        <mxCell id="BNHYbR2AQXxjbn7Fuvar-28" value="2 Solicitar clave" style="text;align=center;fontStyle=1;verticalAlign=middle;spacingLeft=3;spacingRight=3;strokeColor=none;rotatable=0;points=[[0,0.5],[1,0.5]];portConstraint=eastwest;html=1;" vertex="1" parent="BNHYbR2AQXxjbn7Fuvar-1">
          <mxGeometry x="110" y="200" width="120" height="26" as="geometry" />
        </mxCell>
        <mxCell id="BNHYbR2AQXxjbn7Fuvar-29" value="" style="endArrow=open;endFill=1;endSize=12;html=1;rounded=0;" edge="1" parent="BNHYbR2AQXxjbn7Fuvar-1">
          <mxGeometry width="160" relative="1" as="geometry">
            <mxPoint x="235" y="330" as="sourcePoint" />
            <mxPoint x="90" y="330" as="targetPoint" />
          </mxGeometry>
        </mxCell>
        <mxCell id="lFPlnTCYVXNDVTvZYrcl-0" value="" style="endArrow=open;endFill=1;endSize=12;html=1;rounded=0;" edge="1" parent="BNHYbR2AQXxjbn7Fuvar-1">
          <mxGeometry width="160" relative="1" as="geometry">
            <mxPoint x="235" y="232.5" as="sourcePoint" />
            <mxPoint x="90" y="232.5" as="targetPoint" />
          </mxGeometry>
        </mxCell>
        <mxCell id="lFPlnTCYVXNDVTvZYrcl-2" value="" style="endArrow=block;dashed=1;endFill=0;endSize=12;html=1;rounded=0;" edge="1" parent="BNHYbR2AQXxjbn7Fuvar-1">
          <mxGeometry width="160" relative="1" as="geometry">
            <mxPoint x="90" y="279.5" as="sourcePoint" />
            <mxPoint x="240" y="280" as="targetPoint" />
          </mxGeometry>
        </mxCell>
        <mxCell id="lFPlnTCYVXNDVTvZYrcl-3" value="3 introducir clave" style="text;align=center;fontStyle=1;verticalAlign=middle;spacingLeft=3;spacingRight=3;strokeColor=none;rotatable=0;points=[[0,0.5],[1,0.5]];portConstraint=eastwest;html=1;" vertex="1" parent="BNHYbR2AQXxjbn7Fuvar-1">
          <mxGeometry x="100" y="246" width="120" height="26" as="geometry" />
        </mxCell>
        <mxCell id="lFPlnTCYVXNDVTvZYrcl-5" value="" style="endArrow=block;dashed=1;endFill=0;endSize=12;html=1;rounded=0;" edge="1" parent="BNHYbR2AQXxjbn7Fuvar-1" target="BNHYbR2AQXxjbn7Fuvar-5">
          <mxGeometry width="160" relative="1" as="geometry">
            <mxPoint x="90" y="370" as="sourcePoint" />
            <mxPoint x="211" y="370" as="targetPoint" />
          </mxGeometry>
        </mxCell>
        <mxCell id="lFPlnTCYVXNDVTvZYrcl-6" value="7 Ingresar monto" style="text;align=center;fontStyle=1;verticalAlign=middle;spacingLeft=3;spacingRight=3;strokeColor=none;rotatable=0;points=[[0,0.5],[1,0.5]];portConstraint=eastwest;html=1;" vertex="1" parent="BNHYbR2AQXxjbn7Fuvar-1">
          <mxGeometry x="100" y="340" width="120" height="26" as="geometry" />
        </mxCell>
        <mxCell id="lFPlnTCYVXNDVTvZYrcl-7" value="" style="endArrow=open;endFill=1;endSize=12;html=1;rounded=0;" edge="1" parent="BNHYbR2AQXxjbn7Fuvar-1">
          <mxGeometry width="160" relative="1" as="geometry">
            <mxPoint x="250" y="380" as="sourcePoint" />
            <mxPoint x="400" y="380" as="targetPoint" />
          </mxGeometry>
        </mxCell>
        <mxCell id="lFPlnTCYVXNDVTvZYrcl-8" value="8 solicitar ret/dep" style="text;align=center;fontStyle=1;verticalAlign=middle;spacingLeft=3;spacingRight=3;strokeColor=none;rotatable=0;points=[[0,0.5],[1,0.5]];portConstraint=eastwest;html=1;" vertex="1" parent="BNHYbR2AQXxjbn7Fuvar-1">
          <mxGeometry x="260" y="350" width="120" height="26" as="geometry" />
        </mxCell>
        <mxCell id="lFPlnTCYVXNDVTvZYrcl-9" value="" style="endArrow=block;dashed=1;endFill=0;endSize=12;html=1;rounded=0;" edge="1" parent="BNHYbR2AQXxjbn7Fuvar-1">
          <mxGeometry width="160" relative="1" as="geometry">
            <mxPoint x="400" y="420" as="sourcePoint" />
            <mxPoint x="250" y="420" as="targetPoint" />
          </mxGeometry>
        </mxCell>
        <mxCell id="lFPlnTCYVXNDVTvZYrcl-10" value="9 confirmar ret/dep" style="text;align=center;fontStyle=1;verticalAlign=middle;spacingLeft=3;spacingRight=3;strokeColor=none;rotatable=0;points=[[0,0.5],[1,0.5]];portConstraint=eastwest;html=1;" vertex="1" parent="BNHYbR2AQXxjbn7Fuvar-1">
          <mxGeometry x="270" y="390" width="110" height="26" as="geometry" />
        </mxCell>
        <mxCell id="lFPlnTCYVXNDVTvZYrcl-11" value="" style="endArrow=block;dashed=1;endFill=0;endSize=12;html=1;rounded=0;" edge="1" parent="BNHYbR2AQXxjbn7Fuvar-1">
          <mxGeometry width="160" relative="1" as="geometry">
            <mxPoint x="240" y="440" as="sourcePoint" />
            <mxPoint x="90" y="440" as="targetPoint" />
          </mxGeometry>
        </mxCell>
        <mxCell id="lFPlnTCYVXNDVTvZYrcl-12" value="10 entr bill y recibo" style="text;align=center;fontStyle=1;verticalAlign=middle;spacingLeft=3;spacingRight=3;strokeColor=none;rotatable=0;points=[[0,0.5],[1,0.5]];portConstraint=eastwest;html=1;" vertex="1" parent="BNHYbR2AQXxjbn7Fuvar-1">
          <mxGeometry x="110" y="410" width="120" height="26" as="geometry" />
        </mxCell>
        <mxCell id="lFPlnTCYVXNDVTvZYrcl-13" value="" style="endArrow=open;endFill=1;endSize=12;html=1;rounded=0;" edge="1" parent="BNHYbR2AQXxjbn7Fuvar-1">
          <mxGeometry width="160" relative="1" as="geometry">
            <mxPoint x="90" y="482.5" as="sourcePoint" />
            <mxPoint x="240" y="482.5" as="targetPoint" />
          </mxGeometry>
        </mxCell>
      </root>
    </mxGraphModel>
  </diagram>
  <diagram id="Gn_tXECgNwSTxYATU2Rk" name="Componentes">
    <mxGraphModel dx="1050" dy="530" grid="1" gridSize="10" guides="1" tooltips="1" connect="1" arrows="1" fold="1" page="1" pageScale="1" pageWidth="827" pageHeight="1169" math="0" shadow="0">
      <root>
        <mxCell id="0" />
        <mxCell id="1" parent="0" />
        <mxCell id="lO_P1OJWDDVOoc5oOtdu-2" value="Cajero" style="html=1;dropTarget=0;whiteSpace=wrap;" vertex="1" parent="1">
          <mxGeometry x="40" y="70" width="150" height="60" as="geometry" />
        </mxCell>
        <mxCell id="lO_P1OJWDDVOoc5oOtdu-3" value="" style="shape=module;jettyWidth=8;jettyHeight=4;" vertex="1" parent="lO_P1OJWDDVOoc5oOtdu-2">
          <mxGeometry x="1" width="20" height="20" relative="1" as="geometry">
            <mxPoint x="-27" y="7" as="offset" />
          </mxGeometry>
        </mxCell>
        <mxCell id="lO_P1OJWDDVOoc5oOtdu-4" value="Cliente" style="html=1;dropTarget=0;whiteSpace=wrap;" vertex="1" parent="1">
          <mxGeometry x="40" y="230" width="160" height="60" as="geometry" />
        </mxCell>
        <mxCell id="lO_P1OJWDDVOoc5oOtdu-5" value="" style="shape=module;jettyWidth=8;jettyHeight=4;" vertex="1" parent="lO_P1OJWDDVOoc5oOtdu-4">
          <mxGeometry x="1" width="20" height="20" relative="1" as="geometry">
            <mxPoint x="-27" y="7" as="offset" />
          </mxGeometry>
        </mxCell>
        <mxCell id="lO_P1OJWDDVOoc5oOtdu-6" value="Transacción" style="html=1;dropTarget=0;whiteSpace=wrap;" vertex="1" parent="1">
          <mxGeometry x="190" y="390" width="150" height="60" as="geometry" />
        </mxCell>
        <mxCell id="lO_P1OJWDDVOoc5oOtdu-7" value="" style="shape=module;jettyWidth=8;jettyHeight=4;" vertex="1" parent="lO_P1OJWDDVOoc5oOtdu-6">
          <mxGeometry x="1" width="20" height="20" relative="1" as="geometry">
            <mxPoint x="-27" y="7" as="offset" />
          </mxGeometry>
        </mxCell>
        <mxCell id="lO_P1OJWDDVOoc5oOtdu-8" value="Movimientos (dep , ret, creacion)" style="html=1;dropTarget=0;whiteSpace=wrap;" vertex="1" parent="1">
          <mxGeometry x="360" y="200" width="180" height="60" as="geometry" />
        </mxCell>
        <mxCell id="lO_P1OJWDDVOoc5oOtdu-9" value="" style="shape=module;jettyWidth=8;jettyHeight=4;" vertex="1" parent="lO_P1OJWDDVOoc5oOtdu-8">
          <mxGeometry x="1" width="20" height="20" relative="1" as="geometry">
            <mxPoint x="-27" y="7" as="offset" />
          </mxGeometry>
        </mxCell>
        <mxCell id="lO_P1OJWDDVOoc5oOtdu-10" value="BD" style="html=1;dropTarget=0;whiteSpace=wrap;" vertex="1" parent="1">
          <mxGeometry x="650" y="200" width="80" height="60" as="geometry" />
        </mxCell>
        <mxCell id="lO_P1OJWDDVOoc5oOtdu-11" value="" style="shape=module;jettyWidth=8;jettyHeight=4;" vertex="1" parent="lO_P1OJWDDVOoc5oOtdu-10">
          <mxGeometry x="1" width="20" height="20" relative="1" as="geometry">
            <mxPoint x="-27" y="7" as="offset" />
          </mxGeometry>
        </mxCell>
        <mxCell id="lO_P1OJWDDVOoc5oOtdu-12" value="" style="endArrow=none;html=1;rounded=0;entryX=0;entryY=1;entryDx=0;entryDy=0;" edge="1" parent="1" target="lO_P1OJWDDVOoc5oOtdu-8">
          <mxGeometry width="50" height="50" relative="1" as="geometry">
            <mxPoint x="240" y="390" as="sourcePoint" />
            <mxPoint x="290" y="340" as="targetPoint" />
          </mxGeometry>
        </mxCell>
        <mxCell id="lO_P1OJWDDVOoc5oOtdu-13" value="" style="endArrow=none;html=1;rounded=0;exitX=1;exitY=0.5;exitDx=0;exitDy=0;entryX=0;entryY=0;entryDx=0;entryDy=0;" edge="1" parent="1" source="lO_P1OJWDDVOoc5oOtdu-2" target="lO_P1OJWDDVOoc5oOtdu-8">
          <mxGeometry width="50" height="50" relative="1" as="geometry">
            <mxPoint x="240" y="120" as="sourcePoint" />
            <mxPoint x="350" y="200" as="targetPoint" />
          </mxGeometry>
        </mxCell>
        <mxCell id="lO_P1OJWDDVOoc5oOtdu-14" value="" style="endArrow=none;html=1;rounded=0;entryX=0;entryY=0.75;entryDx=0;entryDy=0;" edge="1" parent="1" target="lO_P1OJWDDVOoc5oOtdu-8">
          <mxGeometry width="50" height="50" relative="1" as="geometry">
            <mxPoint x="200" y="250" as="sourcePoint" />
            <mxPoint x="320" y="250" as="targetPoint" />
          </mxGeometry>
        </mxCell>
        <mxCell id="lO_P1OJWDDVOoc5oOtdu-15" value="return" style="html=1;verticalAlign=bottom;endArrow=open;dashed=1;endSize=8;curved=0;rounded=0;entryX=1;entryY=0.75;entryDx=0;entryDy=0;" edge="1" parent="1" target="lO_P1OJWDDVOoc5oOtdu-8">
          <mxGeometry relative="1" as="geometry">
            <mxPoint x="650" y="250" as="sourcePoint" />
            <mxPoint x="570" y="250" as="targetPoint" />
          </mxGeometry>
        </mxCell>
        <mxCell id="lO_P1OJWDDVOoc5oOtdu-16" value="Use" style="endArrow=open;endSize=12;dashed=1;html=1;rounded=0;" edge="1" parent="1">
          <mxGeometry x="0.2727" width="160" relative="1" as="geometry">
            <mxPoint x="540" y="210" as="sourcePoint" />
            <mxPoint x="650" y="210" as="targetPoint" />
            <mxPoint as="offset" />
          </mxGeometry>
        </mxCell>
      </root>
    </mxGraphModel>
  </diagram>
</mxfile>
